<mxfile host="app.diagrams.net" modified="2023-09-10T10:42:42.309Z" agent="Mozilla/5.0 (Macintosh; Intel Mac OS X 10_15_7) AppleWebKit/537.36 (KHTML, like Gecko) Chrome/116.0.0.0 Safari/537.36" version="21.7.4" etag="tb4WGe8sQvB8QuT7fWTK" type="github">
  <diagram name="第 1 页" id="GGC6WsYPNRJZJYCC7tmr">
    <mxGraphModel>
      <root>
        <mxCell id="0" />
        <mxCell id="1" parent="0" />
      </root>
    </mxGraphModel>
  </diagram>
</mxfile>
